HIERARCHY
ROOT root
{
	OFFSET 0.000000 0.000000 0.000000
	CHANNELS 6 Xposition Yposition Zposition Zrotation Yrotation Xrotation
	JOINT lhip
	{
		OFFSET 0.058581 -0.082280 -0.017664
		CHANNELS 3 Zrotation Yrotation Xrotation
		JOINT lknee
		{
			OFFSET 0.043451 -0.386469 0.008037
			CHANNELS 3 Zrotation Yrotation Xrotation
			JOINT lankle
			{
				OFFSET -0.014790 -0.426874 -0.037428
				CHANNELS 3 Zrotation Yrotation Xrotation
				JOINT ltoe
				{
					OFFSET 0.041054 -0.060286 0.122042
					CHANNELS 3 Zrotation Yrotation Xrotation
					End Site
					{
						OFFSET 0.000000 0.000000 0.000000
					}
				}
			}
		}
	}
	JOINT rhip
	{
		OFFSET -0.060310 -0.090513 -0.013543
		CHANNELS 3 Zrotation Yrotation Xrotation
		JOINT rknee
		{
			OFFSET -0.043257 -0.383688 -0.004843
			CHANNELS 3 Zrotation Yrotation Xrotation
			JOINT rankle
			{
				OFFSET 0.019056 -0.420046 -0.034562
				CHANNELS 3 Zrotation Yrotation Xrotation
				JOINT rtoe
				{
					OFFSET -0.034840 -0.062106 0.130323
					CHANNELS 3 Zrotation Yrotation Xrotation
					End Site
					{
						OFFSET 0.000000 0.000000 0.000000
					}
				}
			}
		}
	}
	JOINT lowerback
	{
		OFFSET 0.004439 0.124404 -0.038385
		CHANNELS 3 Zrotation Yrotation Xrotation
		JOINT upperback
		{
			OFFSET 0.004488 0.137956 0.026820
			CHANNELS 3 Zrotation Yrotation Xrotation
			JOINT chest
			{
				OFFSET -0.002265 0.056032 0.002855
				CHANNELS 3 Zrotation Yrotation Xrotation
				JOINT lowerneck
				{
					OFFSET -0.013390 0.211636 -0.033468
					CHANNELS 3 Zrotation Yrotation Xrotation
					JOINT upperneck
					{
						OFFSET 0.010113 0.088937 0.050410
						CHANNELS 3 Zrotation Yrotation Xrotation
						End Site
						{
							OFFSET 0.000000 0.000000 0.000000
						}
					}
				}
				JOINT lclavicle
				{
					OFFSET 0.071702 0.114000 -0.018898
					CHANNELS 3 Zrotation Yrotation Xrotation
					JOINT lshoulder
					{
						OFFSET 0.122921 0.045205 -0.019046
						CHANNELS 3 Zrotation Yrotation Xrotation
						JOINT lelbow
						{
							OFFSET 0.255332 -0.015649 -0.022946
							CHANNELS 3 Zrotation Yrotation Xrotation
							JOINT lwrist
							{
								OFFSET 0.265709 0.012698 -0.007375
								CHANNELS 3 Zrotation Yrotation Xrotation
								End Site
								{
									OFFSET 0.000000 0.000000 0.000000
								}
							}
						}
					}
				}
				JOINT rclavicle
				{
					OFFSET -0.082954 0.112472 -0.023707
					CHANNELS 3 Zrotation Yrotation Xrotation
					JOINT rshoulder
					{
						OFFSET -0.113228 0.046853 -0.008472
						CHANNELS 3 Zrotation Yrotation Xrotation
						JOINT relbow
						{
							OFFSET -0.260127 -0.014369 -0.031269
							CHANNELS 3 Zrotation Yrotation Xrotation
							JOINT rwrist
							{
								OFFSET -0.269108 0.006794 -0.006027
								CHANNELS 3 Zrotation Yrotation Xrotation
								End Site
								{
									OFFSET 0.000000 0.000000 0.000000
								}
							}
						}
					}
				}
			}
		}
	}
}
MOTION
Frames: 16
Frame Time: 0.033333
0.121824 -0.027843 1.028253 -177.689415 0.801042 93.603249 1.331134 -2.132043 11.565056 -9.020207 -0.347141 32.810345 -9.064010 15.213038 30.671621 0.000000 -0.000000 0.000000 -0.550560 8.502713 -34.862274 4.558173 -12.857855 22.717418 8.368699 -2.878949 14.935283 0.000000 -0.000000 0.000000 -3.495088 -8.098072 11.167644 3.976704 -2.185185 3.645520 4.051222 -4.064192 -9.461832 -5.337202 4.286318 5.503333 3.047801 15.689814 -1.742371 -20.806944 -2.975715 4.755624 -57.023522 -18.947425 16.406980 125.587452 -84.843836 -103.219903 14.010753 -8.904038 -16.824581 19.661386 -3.719000 7.725806 51.357055 -10.914298 10.530693 -3.294569 31.317778 12.329880 -0.915214 1.198519 1.401452 
0.123312 0.050010 1.006924 -178.781635 -0.452567 90.623699 2.592957 0.763522 6.457894 -6.628881 3.992778 50.268474 -4.333414 15.871260 23.241023 0.000000 -0.000000 0.000000 1.868798 4.225745 -28.964077 5.523204 -9.036241 30.623347 1.119028 -0.682799 -1.460620 0.000000 -0.000000 0.000000 -3.239804 -5.778717 14.402344 2.630436 -1.649609 -0.593507 3.103384 -3.829567 -5.666067 -4.877669 4.556651 1.371848 2.588175 13.040936 2.656785 -21.404528 -2.164719 2.538504 -57.027580 -15.368363 16.233945 177.022224 -88.251995 -152.839844 12.607667 -7.458145 -18.998134 20.686542 -2.419390 5.172004 50.807595 -11.041717 9.733366 -1.591298 33.486988 15.139465 -1.545203 1.232878 1.131655 
0.126798 0.122528 0.987751 179.691644 -0.179773 87.763840 6.275154 2.025922 -0.881997 -2.557525 8.281142 66.243577 -1.711626 13.822864 12.137732 0.000000 -0.000000 0.000000 3.257598 3.699430 -24.949659 5.182544 -8.132413 39.792082 1.122428 -0.052884 -8.353521 0.000000 -0.000000 0.000000 -1.136412 -3.751507 18.830677 1.666885 0.458224 -4.768857 1.585263 -3.075092 -1.557296 -4.505456 4.352390 -4.820582 0.855975 9.201058 7.468486 -21.765685 0.050781 -0.346386 -58.264546 -13.396275 17.989913 -19.849997 -87.196630 46.677262 11.006475 -6.926816 -18.890947 21.928509 -2.117625 1.240518 50.691281 -8.350458 11.889196 -3.691486 33.521211 14.947371 -1.999528 1.877054 1.479873 
0.126973 0.184992 0.980016 177.569101 0.374355 89.266377 9.198557 -0.362830 -16.169755 0.065088 13.585197 78.425607 -0.376487 13.147446 6.377164 0.000000 -0.000000 0.000000 3.424207 4.971671 -21.730856 7.947940 -6.887907 39.787679 0.696087 -0.843955 -11.363369 0.000000 -0.000000 0.000000 0.863741 -1.023084 19.130982 1.683338 1.554179 -3.673119 0.310105 -1.587291 -3.804703 -4.739628 3.100906 -4.838648 -0.241847 6.943523 6.588987 -22.730157 2.383536 0.516417 -58.630498 -11.294874 15.693483 -11.261467 -83.369028 41.309038 7.708026 -7.095381 -16.010900 22.715686 -1.222179 4.246332 50.746359 -1.024124 10.123077 -6.833010 34.047493 14.246492 -3.280030 1.475822 0.051315 
0.127540 0.249940 0.980792 176.513712 -0.182951 88.506954 10.047711 -1.546488 -27.964377 -0.243176 15.424684 80.805919 0.175450 12.296874 1.849637 0.000000 -0.000000 0.000000 3.545922 1.562900 -13.791980 9.054472 -2.976410 37.314086 0.590560 0.408404 -13.663603 0.000000 -0.000000 0.000000 0.877555 2.399881 21.939619 1.204219 0.994875 -5.192540 0.027511 -0.066552 -3.161943 -4.692050 1.574924 -6.041500 0.731492 4.574561 7.013246 -22.237485 3.627611 0.746115 -58.205722 -7.751966 12.525115 -14.227511 -82.256560 44.641255 8.938694 -7.749968 -16.114048 21.942509 1.427733 5.121419 52.486520 3.358007 8.036654 -10.685098 37.195458 8.213678 -7.092624 2.359896 -1.373752 
0.128805 0.316154 0.985724 176.399070 -1.582794 89.074151 9.399347 -3.797854 -38.645041 -1.989715 16.573278 74.818330 -0.772896 11.714467 -0.270064 0.000000 -0.000000 0.000000 3.056558 -2.321358 -7.501205 8.637711 2.662232 34.926159 2.725419 0.421197 -13.501518 0.000000 -0.000000 0.000000 -0.668248 5.839446 22.470994 1.279123 0.290643 -7.695307 -0.223813 0.990040 -0.897557 -3.639841 1.312872 -7.642599 1.475972 1.085400 8.878457 -20.871057 6.075605 -0.054084 -57.425873 -4.661972 12.390586 -14.443629 -81.571596 43.803000 12.932667 -6.064640 -19.478873 21.680518 1.581603 2.659043 53.332224 5.614020 9.646792 -15.112368 42.179136 2.168557 -10.259557 1.093566 -4.992866 
0.129601 0.387339 0.997265 176.677102 -3.231037 91.207771 10.403420 -7.823679 -46.613107 -1.489748 21.218778 62.356964 -0.164859 10.729245 1.742307 0.000000 -0.000000 0.000000 1.106457 -4.774326 -1.410452 7.214570 4.982530 29.866058 4.120182 2.239641 -10.590709 0.000000 -0.000000 0.000000 -2.868223 9.182274 18.004256 1.677383 -0.799888 -6.434794 -0.837403 1.652037 -0.138200 -2.064508 1.290273 -6.661006 1.500020 -1.965150 9.098472 -19.893398 8.987341 -0.259416 -55.351716 -2.897006 12.842956 -14.144063 -80.661319 41.625243 12.182031 -6.194827 -19.632049 22.670659 -0.008338 1.262676 52.661835 8.706185 12.056280 -19.096629 46.867184 -2.717458 -10.876057 2.348448 -6.604712 
0.130727 0.463444 1.010728 177.057808 -4.265969 92.771750 9.303491 -9.933301 -48.519303 -1.357772 22.600731 43.194417 -1.240012 10.195598 11.651216 0.000000 -0.000000 0.000000 -1.076088 -6.184264 5.514364 6.297778 4.964365 23.129309 7.156115 3.179455 -1.771665 0.000000 -0.000000 0.000000 -4.551043 10.998004 13.993948 1.574377 -1.088389 -4.745962 -1.262907 2.572647 -0.722492 -1.792055 0.415879 -3.212092 2.730519 -4.289512 8.370936 -18.668477 10.760712 0.476834 -53.486002 -1.795958 12.412263 -13.728102 -78.982780 39.845909 10.997818 -6.671778 -18.645579 22.605760 -1.259020 1.337959 52.653736 9.605623 13.134890 -22.571403 52.638952 -4.172612 -11.756974 3.167804 -7.718306 
0.131200 0.542555 1.022845 176.604632 -4.213712 94.626152 7.485659 -10.936905 -46.511916 -1.400695 22.969340 21.543968 -7.015282 8.256200 28.203870 0.000000 -0.000000 0.000000 -2.484648 -6.564307 9.668367 5.916670 3.046933 18.750795 10.356723 3.459152 11.936328 0.000000 -0.000000 0.000000 -4.981324 13.385685 7.896689 1.130854 -1.951170 0.352128 -1.567052 3.004189 -3.465414 -2.012656 -1.027766 1.877303 4.585333 -5.023745 6.742329 -17.944277 11.489403 0.669131 -51.755873 0.306884 12.251612 -11.193379 -77.506676 34.028865 11.316040 -6.487599 -15.164066 22.248677 -1.592837 2.443202 52.450185 9.619874 13.302840 -24.438908 57.416232 -6.487567 -12.581016 4.615904 -5.797710 
0.134607 0.620293 1.033169 176.795504 -3.663334 95.155984 5.712778 -11.549012 -42.892803 -3.876073 20.556036 7.541554 -8.387532 6.741465 33.421463 0.000000 -0.000000 0.000000 -2.706293 -7.651647 10.846378 5.076742 1.470466 20.942614 14.055549 1.037470 26.200398 0.000000 -0.000000 0.000000 -6.491494 13.952145 4.122176 1.698269 -2.063838 3.212716 -1.207145 3.130061 -5.768849 -1.753102 -2.498286 5.968969 6.049728 -4.720845 6.191200 -17.261477 12.107859 1.754336 -50.162802 1.646790 11.662042 -8.683288 -77.266402 29.784161 11.615994 -6.588279 -13.103525 22.660586 -1.727241 3.321553 51.521397 8.839784 13.761732 -23.975796 59.780414 -6.754319 -12.401137 6.050833 -4.751614 
0.137611 0.698653 1.036568 176.723334 -2.848332 94.423653 3.934437 -11.203498 -38.929610 -4.689181 17.879191 7.076147 -8.439680 7.372677 34.449252 0.000000 -0.000000 0.000000 -2.280514 -6.787325 10.930006 5.007562 -0.108731 27.292103 14.165194 -2.363735 34.265796 0.000000 -0.000000 0.000000 -7.496931 13.541059 1.495123 2.644076 -1.748139 5.566545 -0.960325 3.076351 -7.224618 -1.122711 -3.839236 8.828355 6.783211 -3.831670 6.094118 -17.226252 12.227020 2.753242 -48.185462 2.402860 10.768797 -4.932797 -77.589025 24.462965 12.663390 -6.769093 -12.086039 23.454450 -1.776871 3.761867 50.274032 7.875306 14.062178 -21.348609 60.532645 -5.605489 -11.333737 6.248664 -4.473608 
0.141019 0.779119 1.028035 176.595419 -2.125640 92.488027 3.172665 -14.304272 -32.764491 -6.618637 12.031796 11.561574 0.265405 7.179322 19.232167 0.000000 -0.000000 0.000000 -2.066470 -5.065227 10.332168 4.697214 -3.158390 36.857879 11.536175 -8.684648 33.773062 0.000000 -0.000000 0.000000 -8.293369 12.411426 0.936833 3.698006 -1.343503 6.130132 -0.329501 2.927769 -7.207895 0.064846 -4.980049 10.721526 6.183318 -2.214346 6.093063 -17.488678 12.141298 3.839474 -46.689369 1.872720 10.047683 -3.892146 -77.502673 21.607751 13.960018 -6.269404 -12.716734 23.734324 -1.789403 3.295762 49.517698 6.188152 15.763723 -18.699041 59.781116 -3.834354 -10.245816 6.042028 -5.508434 
0.144651 0.856151 1.009011 177.312021 -1.829443 89.719707 -0.498727 -14.393911 -26.440884 -7.777322 6.931266 17.708699 10.270018 10.750199 2.472751 0.000000 -0.000000 0.000000 -3.555254 -4.202997 8.029568 1.072036 -8.847975 49.780684 6.660390 -16.240431 23.267833 0.000000 -0.000000 0.000000 -8.844788 9.530281 4.826455 4.240794 -0.308563 1.992244 0.588279 2.760372 -4.385868 1.863241 -6.005180 8.609434 4.657012 -0.362827 8.843564 -19.965353 11.215694 2.965001 -43.875760 0.730512 10.772987 1.969029 -77.342859 14.332815 16.584116 -5.937000 -11.012258 24.655761 -1.314331 -0.158674 48.786465 2.555757 19.306488 -19.700332 57.804564 -6.046752 -8.591784 5.804592 -2.684898 
0.146110 0.929543 0.988330 179.554951 -1.924039 86.320096 -5.257965 -7.719701 -22.641250 -8.658860 0.397459 28.870220 9.852879 10.660693 -6.134367 0.000000 -0.000000 0.000000 -6.570973 -6.375575 4.005506 -2.557862 -10.030789 62.608408 5.510276 -16.466352 12.059785 0.000000 -0.000000 0.000000 -7.845453 6.476215 13.157061 3.381008 -0.463442 -5.059772 1.018888 1.920210 -1.124893 3.544049 -4.958607 3.424759 3.689532 0.204321 14.358576 -21.995522 8.749706 1.470978 -43.265299 -0.433988 10.337300 7.947166 -75.440365 9.759653 17.175301 -6.695293 -9.106999 24.113782 -1.021136 -2.804928 50.315465 -0.151462 19.163131 -17.913872 54.180481 -4.258409 -5.990643 6.130136 1.916338 
0.150466 0.993275 0.980269 -179.106910 -2.041901 85.913439 -4.499565 -9.688698 -19.047957 -11.446674 0.974355 31.041125 7.727568 12.443110 -9.388660 0.000000 -0.000000 0.000000 -7.544751 -4.692544 -6.781194 -2.742307 -11.344617 73.012658 6.196951 -14.112495 2.663119 0.000000 -0.000000 0.000000 -7.714218 4.291092 17.173941 2.961301 -1.131616 -6.848861 0.983002 0.379461 -1.716369 4.448278 -2.698688 2.933513 3.788143 0.727256 12.994465 -21.955541 6.194835 2.363440 -45.533656 -3.942574 8.177588 14.354095 -72.907049 5.727838 13.748610 -8.247157 -6.298967 24.679372 -1.356952 0.329087 52.268516 1.537008 14.589579 -16.239310 48.843774 -0.089626 -4.081239 6.393645 5.848458 
0.155242 1.053104 0.980613 -178.768878 -1.619247 85.593803 -4.708113 -6.910029 -12.430471 -13.086085 -3.483047 29.202674 8.259465 13.715382 -11.356388 0.000000 -0.000000 0.000000 -7.396413 -4.013839 -18.834744 -0.871783 -11.081880 77.695333 6.757509 -13.005877 -1.980249 0.000000 -0.000000 0.000000 -7.170326 1.418099 19.077913 2.521785 -0.619994 -6.775919 1.327524 -0.577174 -1.906714 3.618179 -1.487611 2.990748 4.205853 2.260103 11.790151 -21.704652 2.925509 3.023864 -47.958378 -7.458019 7.817057 22.068893 -73.125523 -0.568500 16.129375 -6.884013 -7.455778 22.980921 -0.890073 2.031836 54.860507 0.322975 12.417783 -15.068199 45.716267 2.109839 -3.902471 5.255598 5.648840 
